<svg xmlns="http://www.w3.org/2000/svg" width="1080" height="620" viewBox="0 0 1080 620">
  <rect width="1080" height="620" fill="#F8FAFC"/>
  <rect x="18" y="18" width="1044" height="584" rx="14" fill="white" stroke="#E7ECF1"/>
  <text x="62" y="58" fill="#0F172A" font-size="36" font-weight="700" font-family="sans-serif">Qwen3-8B TTFT: Baseline vs Optimized</text>
  <text x="62" y="101" fill="#64748B" font-size="19" font-family="sans-serif">Ascend 910B3 · BF16 · Median of 20 runs · Lower is better</text>
  <line x1="105" y1="525.00" x2="1035" y2="525.00" stroke="#DCE3EA"/>
  <text x="90" y="531.0" fill="#64748B" font-size="17" text-anchor="end" font-family="sans-serif">0</text>
  <line x1="105" y1="462.50" x2="1035" y2="462.50" stroke="#DCE3EA"/>
  <text x="90" y="468.5" fill="#64748B" font-size="17" text-anchor="end" font-family="sans-serif">25</text>
  <line x1="105" y1="400.00" x2="1035" y2="400.00" stroke="#DCE3EA"/>
  <text x="90" y="406.0" fill="#64748B" font-size="17" text-anchor="end" font-family="sans-serif">50</text>
  <line x1="105" y1="337.50" x2="1035" y2="337.50" stroke="#DCE3EA"/>
  <text x="90" y="343.5" fill="#64748B" font-size="17" text-anchor="end" font-family="sans-serif">75</text>
  <line x1="105" y1="275.00" x2="1035" y2="275.00" stroke="#DCE3EA"/>
  <text x="90" y="281.0" fill="#64748B" font-size="17" text-anchor="end" font-family="sans-serif">100</text>
  <line x1="105" y1="212.50" x2="1035" y2="212.50" stroke="#DCE3EA"/>
  <text x="90" y="218.5" fill="#64748B" font-size="17" text-anchor="end" font-family="sans-serif">125</text>
  <line x1="105" y1="150.00" x2="1035" y2="150.00" stroke="#DCE3EA"/>
  <text x="90" y="156.0" fill="#64748B" font-size="17" text-anchor="end" font-family="sans-serif">150</text>
  <rect x="137.00" y="223.06" width="54" height="301.94" rx="4" fill="#64748B"/>
  <rect x="205.00" y="279.40" width="54" height="245.60" rx="4" fill="#0F9D8A"/>
  <text x="164.0" y="211.06330625942792" fill="#334155" font-size="18" text-anchor="middle" font-family="sans-serif">120.8</text>
  <text x="232.0" y="267.39542624371825" fill="#087468" font-size="18" font-weight="700" text-anchor="middle" font-family="sans-serif">98.2</text>
  <text x="198.0" y="178.06330625942792" fill="#A6450D" font-size="18" font-weight="700" text-anchor="middle" font-family="sans-serif">-18.7%</text>
  <text x="198.0" y="560" fill="#334155" font-size="18" text-anchor="middle" font-family="sans-serif">1</text>
  <rect x="323.00" y="206.30" width="54" height="318.70" rx="4" fill="#64748B"/>
  <rect x="391.00" y="278.61" width="54" height="246.39" rx="4" fill="#0F9D8A"/>
  <text x="350.0" y="194.29698750999523" fill="#334155" font-size="18" text-anchor="middle" font-family="sans-serif">127.5</text>
  <text x="418.0" y="266.6084499915887" fill="#087468" font-size="18" font-weight="700" text-anchor="middle" font-family="sans-serif">98.6</text>
  <text x="384.0" y="161.29698750999523" fill="#A6450D" font-size="18" font-weight="700" text-anchor="middle" font-family="sans-serif">-22.7%</text>
  <text x="384.0" y="560" fill="#334155" font-size="18" text-anchor="middle" font-family="sans-serif">8</text>
  <rect x="509.00" y="214.49" width="54" height="310.51" rx="4" fill="#64748B"/>
  <rect x="577.00" y="273.23" width="54" height="251.77" rx="4" fill="#0F9D8A"/>
  <text x="536.0" y="202.48555249880883" fill="#334155" font-size="18" text-anchor="middle" font-family="sans-serif">124.2</text>
  <text x="604.0" y="261.22657623008126" fill="#087468" font-size="18" font-weight="700" text-anchor="middle" font-family="sans-serif">100.7</text>
  <text x="570.0" y="169.48555249880883" fill="#A6450D" font-size="18" font-weight="700" text-anchor="middle" font-family="sans-serif">-18.9%</text>
  <text x="570.0" y="560" fill="#334155" font-size="18" text-anchor="middle" font-family="sans-serif">17</text>
  <rect x="695.00" y="226.18" width="54" height="298.82" rx="4" fill="#64748B"/>
  <rect x="763.00" y="277.10" width="54" height="247.90" rx="4" fill="#0F9D8A"/>
  <text x="722.0" y="214.1804874819063" fill="#334155" font-size="18" text-anchor="middle" font-family="sans-serif">119.5</text>
  <text x="790.0" y="265.1008087460359" fill="#087468" font-size="18" font-weight="700" text-anchor="middle" font-family="sans-serif">99.2</text>
  <text x="756.0" y="181.1804874819063" fill="#A6450D" font-size="18" font-weight="700" text-anchor="middle" font-family="sans-serif">-17.0%</text>
  <text x="756.0" y="560" fill="#334155" font-size="18" text-anchor="middle" font-family="sans-serif">64</text>
  <rect x="881.00" y="223.34" width="54" height="301.66" rx="4" fill="#64748B"/>
  <rect x="949.00" y="269.65" width="54" height="255.35" rx="4" fill="#0F9D8A"/>
  <text x="908.0" y="211.33996872694115" fill="#334155" font-size="18" text-anchor="middle" font-family="sans-serif">120.7</text>
  <text x="976.0" y="257.6548450170667" fill="#087468" font-size="18" font-weight="700" text-anchor="middle" font-family="sans-serif">102.1</text>
  <text x="942.0" y="178.33996872694115" fill="#A6450D" font-size="18" font-weight="700" text-anchor="middle" font-family="sans-serif">-15.4%</text>
  <text x="942.0" y="560" fill="#334155" font-size="18" text-anchor="middle" font-family="sans-serif">128</text>
  <text x="570.0" y="590" fill="#334155" font-size="19" text-anchor="middle" font-family="sans-serif">Prefill length (tokens)</text>
  <text x="34" y="337.5" fill="#334155" font-size="19" text-anchor="middle" font-family="sans-serif" transform="rotate(-90 34 337.5)">Median TTFT (ms)</text>
  <rect x="780" y="115" width="21" height="14" fill="#64748B"/>
  <text x="809" y="129" fill="#334155" font-size="18" font-family="sans-serif">Baseline</text>
  <rect x="900" y="115" width="21" height="14" fill="#0F9D8A"/>
  <text x="929" y="129" fill="#334155" font-size="18" font-family="sans-serif">Optimized</text>
</svg>
